<svg xmlns="http://www.w3.org/2000/svg" viewBox="0 0 160 39.224"><defs><style>.a{fill:#383839;}.b{fill:#057ab2;}.c{fill:#07a9da;}.d{fill:#004c81;}.e{fill:#0e8acb;}</style></defs><g transform="translate(36.654 4.733)"><path class="a" d="M1551.4,481.874V479.4a1.5,1.5,0,0,1,.486-1.128,1.6,1.6,0,0,1,1.144-.47,1.656,1.656,0,0,1,1.191.47,1.5,1.5,0,0,1,.486,1.128v2.492H1551.4Zm0,23.036V484.868h3.307v20.027H1551.4Z" transform="translate(-1551.4 -477.8)"/></g><path class="a" d="M1595.974,541.256v-14.7c0-1.755-.611-2.648-1.834-2.648s-1.833.878-1.833,2.648v14.7H1589v-14.9a5.789,5.789,0,0,1,1.3-4.027,4.953,4.953,0,0,1,3.824-1.426,4.875,4.875,0,0,1,3.824,1.426,5.761,5.761,0,0,1,1.3,4.027v14.9Z" transform="translate(-1546.454 -509.413)"/><path class="a" d="M1677.87,540.228a4.914,4.914,0,0,1-3.777,1.426,4.857,4.857,0,0,1-3.776-1.426A5.693,5.693,0,0,1,1669,536.2v-9.716a5.83,5.83,0,0,1,1.3-4.043,5.732,5.732,0,0,1,7.585-.016,5.762,5.762,0,0,1,1.3,4.027v1.363h-3.307v-1.16c0-1.755-.6-2.648-1.786-2.648a1.469,1.469,0,0,0-1.363.705,3.764,3.764,0,0,0-.423,1.943v9.371c0,1.771.6,2.648,1.787,2.648s1.786-.878,1.786-2.648V534.9h3.307v1.316A5.678,5.678,0,0,1,1677.87,540.228Z" transform="translate(-1613.917 -509.498)"/><path class="a" d="M1755.248,541.83a4.953,4.953,0,0,1-3.824,1.426,4.875,4.875,0,0,1-3.824-1.426,5.761,5.761,0,0,1-1.3-4.027V522.9h3.306v14.7c0,1.771.611,2.648,1.834,2.648s1.833-.878,1.833-2.648V522.9h3.307v14.9A5.923,5.923,0,0,1,1755.248,541.83Z" transform="translate(-1679.103 -511.1)"/><path class="a" d="M1836.324,504.81a5.347,5.347,0,0,1-3.949,1.426,5.284,5.284,0,0,1-3.949-1.426,5.464,5.464,0,0,1-1.426-4.027V479h3.307v8.133a2.312,2.312,0,0,1,1.113-1.113,3.61,3.61,0,0,1,1.692-.454,4.238,4.238,0,0,1,3.495,1.395,6.337,6.337,0,0,1,1.128,4.043v9.779A5.334,5.334,0,0,1,1836.324,504.81Zm-1.88-13.6a2.978,2.978,0,0,0-.564-2.006,2.083,2.083,0,0,0-3.009,0,2.977,2.977,0,0,0-.564,2.006v9.371a2.931,2.931,0,0,0,.564,1.99,1.96,1.96,0,0,0,1.5.627,1.908,1.908,0,0,0,1.5-.627,2.9,2.9,0,0,0,.564-1.99Z" transform="translate(-1747.157 -474.079)"/><path class="a" d="M1916.538,541.341v-1.316a2.285,2.285,0,0,1-1.16,1.207,3.911,3.911,0,0,1-1.755.423,4.238,4.238,0,0,1-3.495-1.395,6.338,6.338,0,0,1-1.128-4.043v-9.763a5.425,5.425,0,0,1,1.426-4.027,6.181,6.181,0,0,1,7.9,0,5.464,5.464,0,0,1,1.426,4.027v14.9h-3.213Zm-.11-14.715a2.931,2.931,0,0,0-.564-1.99,1.96,1.96,0,0,0-1.5-.627,1.908,1.908,0,0,0-1.5.627,2.9,2.9,0,0,0-.564,1.99V536a2.978,2.978,0,0,0,.564,2.006,2.083,2.083,0,0,0,3.009,0,2.977,2.977,0,0,0,.564-2.006Z" transform="translate(-1816.307 -509.498)"/><path class="a" d="M1994.242,516.316c-.956-.815-1.442-2.194-1.442-4.137V492.7h3.306v4.748h2.727v2.993h-2.711V511.8a2.967,2.967,0,0,0,.6,2.116,2.812,2.812,0,0,0,2.115.564v2.993C1996.733,517.523,1995.213,517.146,1994.242,516.316Z" transform="translate(-1886.975 -485.632)"/><path class="a" d="M2047.524,540.144a5.346,5.346,0,0,1-3.949,1.426,5.285,5.285,0,0,1-3.949-1.426,5.464,5.464,0,0,1-1.426-4.027v-9.763a5.426,5.426,0,0,1,1.426-4.027,6.181,6.181,0,0,1,7.9,0,5.464,5.464,0,0,1,1.426,4.027v9.763A5.4,5.4,0,0,1,2047.524,540.144Zm-1.881-13.6a2.977,2.977,0,0,0-.564-2.006,2.083,2.083,0,0,0-3.009,0,2.978,2.978,0,0,0-.564,2.006v9.371a2.977,2.977,0,0,0,.564,2.006,2.083,2.083,0,0,0,3.009,0,2.978,2.978,0,0,0,.564-2.006Z" transform="translate(-1925.26 -509.413)"/><path class="a" d="M2125.478,526.583a3.941,3.941,0,0,0-.94,2.977v13.258H2121.2V529.325c0-2.382.564-4.106,1.708-5.156s2.915-1.5,5.328-1.379v2.993A3.666,3.666,0,0,0,2125.478,526.583Z" transform="translate(-1995.253 -510.99)"/><path class="a" d="M2180.872,540.018a3.8,3.8,0,0,1-3.307,1.536,3.472,3.472,0,0,1-1.8-.5,2.864,2.864,0,0,1-1.222-1.395v8.979H2173.1V526.7a7.439,7.439,0,0,1,1.066-4.278,4.494,4.494,0,0,1,6.738,0,7.439,7.439,0,0,1,1.066,4.278v9.058A7.377,7.377,0,0,1,2180.872,540.018Zm-.361-13.242a6.354,6.354,0,0,0-.721-3.228,2.7,2.7,0,0,0-4.545,0,6.357,6.357,0,0,0-.721,3.228v8.9a6.845,6.845,0,0,0,.674,3.228,2.736,2.736,0,0,0,4.639,0,6.845,6.845,0,0,0,.674-3.228Z" transform="translate(-2039.02 -509.413)"/><path class="a" d="M2247.941,525.29a4.976,4.976,0,0,0-.8,3.009v14.621H2245.7v-14.7a6.114,6.114,0,0,1,1.16-3.949,4.471,4.471,0,0,1,3.73-1.379v1.395A3.015,3.015,0,0,0,2247.941,525.29Z" transform="translate(-2100.243 -511.092)"/><path class="a" d="M2289.7,540a4.434,4.434,0,0,1-6.739,0,7.314,7.314,0,0,1-1.066-4.247V526.7a7.44,7.44,0,0,1,1.066-4.278,4.494,4.494,0,0,1,6.739,0,7.44,7.44,0,0,1,1.066,4.278v9.058A7.2,7.2,0,0,1,2289.7,540Zm-.36-13.226a6.354,6.354,0,0,0-.721-3.228,2.7,2.7,0,0,0-4.544,0,6.351,6.351,0,0,0-.721,3.228v8.9a6.453,6.453,0,0,0,.721,3.244,2.668,2.668,0,0,0,4.544,0,6.456,6.456,0,0,0,.721-3.244Z" transform="translate(-2130.77 -509.413)"/><g transform="translate(42.452)"><path class="a" d="M1589.215,460.847a1.184,1.184,0,0,1-.47-.36,1.563,1.563,0,0,1-.266-.564,3.571,3.571,0,0,1-.078-.752V452.4h.5v1.645h1.034v.486H1588.9v4.607a3.224,3.224,0,0,0,.047.58,1.04,1.04,0,0,0,.157.423.863.863,0,0,0,.313.266,1.24,1.24,0,0,0,.517.078v.486A2.21,2.21,0,0,1,1589.215,460.847Z" transform="translate(-1588.4 -451.648)"/><path class="a" d="M1604.66,456.908v-5a2.8,2.8,0,0,0-.188-1.144.721.721,0,0,0-.721-.407.862.862,0,0,0-.815.439,2.318,2.318,0,0,0-.235,1.1v5.015h-.5V447.6h.5v2.946a1.067,1.067,0,0,1,.423-.486,1.093,1.093,0,0,1,.627-.188,1.145,1.145,0,0,1,1.1.517,2.978,2.978,0,0,1,.3,1.489v5.03Z" transform="translate(-1600.037 -447.6)"/><path class="a" d="M1629.411,468.7a1.375,1.375,0,0,1-1.175.548,1.281,1.281,0,0,1-1.16-.533,2.53,2.53,0,0,1-.376-1.473v-3.134a2.564,2.564,0,0,1,.376-1.473,1.317,1.317,0,0,1,1.16-.533,1.281,1.281,0,0,1,1.16.533,2.53,2.53,0,0,1,.376,1.473v1.066l-2.57,1.285v.768a2.228,2.228,0,0,0,.251,1.128.83.83,0,0,0,.783.439.854.854,0,0,0,.8-.439,2.08,2.08,0,0,0,.235-1.128h.5A2.248,2.248,0,0,1,1629.411,468.7Zm-.125-4.56a2.128,2.128,0,0,0-.251-1.113.846.846,0,0,0-.784-.423.83.83,0,0,0-.784.423,2.128,2.128,0,0,0-.251,1.113v1.755l2.068-1.034Z" transform="translate(-1620.698 -459.828)"/></g><g transform="translate(0 2.93)"><g transform="translate(8.995 21.641)"><path class="b" d="M1379.413,607.55l-2.382,4.121a1.1,1.1,0,0,1-.674.486l-.235-1.019-.016.031-1.207-2.1.157-.266v-.078l.11-.11,2.445-4.215Z" transform="translate(-1374.9 -604.4)"/></g><g transform="translate(18.695 0)"><path class="b" d="M1441.141,469.419l-.157.266v.078l-.11.11-2.257,3.9-1.818-3.15,2.194-3.808a1.045,1.045,0,0,1,.893-.517h.078l-.063.454v.564h0Z" transform="translate(-1436.8 -466.3)"/></g><g transform="translate(0.172 0)"><path class="b" d="M1328.629,469.419l-.157.266v.078l-.11.11-7.036,12.208-.6-1.034-1.238.016a.015.015,0,0,0,.016-.016l-.909-.533,7.9-13.7a1.045,1.045,0,0,1,.893-.517h.078l-.063.454v.548h0Z" transform="translate(-1318.6 -466.3)"/></g><g transform="translate(7.939)"><path class="c" d="M1373.715,470.939l-1.818,3.15-3.6-6.253a1.113,1.113,0,0,1-.016-1.019l.016-.031a1.006,1.006,0,0,1,.815-.486h.909a1.756,1.756,0,0,1,1.5.862Z" transform="translate(-1368.162 -466.3)"/></g><g transform="translate(0 13.68)"><path class="c" d="M1328.736,568.342a1.022,1.022,0,0,1-.8.972l-.251.031h-.862a1.731,1.731,0,0,1-1.489-.862l-7.694-13.336a1.041,1.041,0,0,1-.047-.956l.016-.078.063-.078a1.069,1.069,0,0,1,.862-.439h1.222a.994.994,0,0,1,.893.5l7.9,13.681A.749.749,0,0,1,1328.736,568.342Z" transform="translate(-1317.5 -553.595)"/></g><g transform="translate(21.814 13.649)"><path class="b" d="M1466.855,554.7a1.049,1.049,0,0,1-.11.282l-7.914,13.7a1.1,1.1,0,0,1-.674.486l-.235-1-.016.016-1.207-2.1.157-.266v-.094l.11-.11,7.052-12.208.6,1.05,1.238-.016a.015.015,0,0,0-.016.016Z" transform="translate(-1456.7 -553.4)"/></g><g transform="translate(20.774 0.016)"><path class="c" d="M1461.288,481.115a1.214,1.214,0,0,1-.031.235,1.035,1.035,0,0,1-.987.768H1459a1.045,1.045,0,0,1-.893-.5l-7.914-13.681a1.113,1.113,0,0,1-.016-1.019l.016-.031a1,1,0,0,1,.8-.486h.956a1.731,1.731,0,0,1,1.489.862l7.71,13.336A.832.832,0,0,1,1461.288,481.115Z" transform="translate(-1450.062 -466.4)"/></g><g transform="translate(18.711 21.955)"><path class="c" d="M1442.275,612.872a1.021,1.021,0,0,1-.8.972l-.047.016c-.016,0-.047.016-.063.016h-.987a1.731,1.731,0,0,1-1.489-.862l-1.99-3.463,1.818-3.15,3.416,5.924A1.144,1.144,0,0,1,1442.275,612.872Z" transform="translate(-1436.9 -606.4)"/></g><g transform="translate(15.592 13.649)"><path class="d" d="M1427.139,554.7a1.336,1.336,0,0,1-.094.266l-7.914,13.7a1.074,1.074,0,0,1-.517.439l-.376-.956-.016.016-1.222-2.1.157-.266v-.078l.11-.11,7.052-12.208.611,1.05,1.238-.016Z" transform="translate(-1417 -553.4)"/></g><g transform="translate(6.754 0.016)"><path class="d" d="M1370.645,469.5l-.157.266v.078l-.11.11-7.036,12.208-.6-1.034-1.238.016-.909-.533,7.9-13.7a1.081,1.081,0,0,1,.893-.517h.063l.063.016-.094.47v.533h0Z" transform="translate(-1360.6 -466.4)"/></g><g transform="translate(6.629 13.679)"><path class="e" d="M1371.02,568.34a1.021,1.021,0,0,1-.8.972l-.078.016h-1.019a1.73,1.73,0,0,1-1.489-.862l-7.694-13.336a1.085,1.085,0,0,1-.141-.533.983.983,0,0,1,.047-.3.142.142,0,0,0,.016-.078h0a.268.268,0,0,1,.11-.2l.016-.016.047-.047a1.019,1.019,0,0,1,.815-.36h1.238a1.045,1.045,0,0,1,.893.5l7.9,13.681A1.252,1.252,0,0,1,1371.02,568.34Z" transform="translate(-1359.8 -553.592)"/></g><g transform="translate(14.537 0.016)"><path class="e" d="M1421.488,481.115a1.2,1.2,0,0,1-.031.235,1.035,1.035,0,0,1-.987.768H1419.2a1.045,1.045,0,0,1-.893-.5l-7.914-13.681a1.113,1.113,0,0,1-.016-1.019l.016-.031a1.006,1.006,0,0,1,.815-.486h.94a1.731,1.731,0,0,1,1.489.862l7.71,13.336A.743.743,0,0,1,1421.488,481.115Z" transform="translate(-1410.262 -466.4)"/></g></g></svg>